<?xml version="1.0" standalone="no"?>
<!DOCTYPE svg PUBLIC "-//W3C//DTD SVG 20010904//EN"
 "http://www.w3.org/TR/2001/REC-SVG-20010904/DTD/svg10.dtd">
<svg version="1.0" xmlns="http://www.w3.org/2000/svg"
 width="327.000000pt" height="261.000000pt" viewBox="0 0 327.000000 261.000000"
 preserveAspectRatio="xMidYMid meet">

<g transform="translate(0.000000,261.000000) scale(0.100000,-0.100000)"
fill="#000000" stroke="none">
<path d="M2802 1533 c-12 -10 -57 -78 -101 -152 -64 -106 -81 -142 -81 -172
l0 -39 -60 0 -60 0 0 150 0 150 -45 0 -45 0 0 -240 0 -240 -24 -15 c-28 -19
-58 -9 -76 25 -6 11 -10 103 -10 224 l0 206 -45 0 -45 0 0 -130 0 -130 -55 0
-55 0 0 110 0 110 -45 0 -45 0 0 -110 0 -110 -55 0 -55 0 0 150 0 150 -45 0
-45 0 0 -150 0 -150 -60 0 -60 0 0 110 0 110 -45 0 -45 0 0 -210 c0 -211 0
-211 -25 -235 -15 -16 -36 -25 -55 -25 -29 0 -30 -1 -30 -46 l0 -47 52 6 c95
12 139 62 147 169 l6 73 165 3 c91 2 207 0 258 -3 l92 -7 0 -36 c0 -60 35
-118 86 -143 99 -48 193 11 209 132 l7 49 109 0 c103 0 109 -1 109 -20 0 -30
27 -91 53 -119 31 -33 95 -61 143 -61 90 0 184 77 188 153 1 29 -2 32 -31 35
-17 2 -36 -3 -42 -10 -52 -65 -69 -79 -101 -84 -49 -8 -102 29 -114 79 -8 32
-5 44 23 99 18 34 43 77 56 96 l23 34 31 -48 30 -49 -50 -3 c-44 -3 -52 -7
-69 -35 -35 -57 -34 -57 134 -57 151 0 155 1 185 26 40 33 58 90 42 135 -19
54 -161 279 -188 296 -22 15 -26 15 -49 -3 -14 -10 -33 -31 -41 -45 -15 -24
-14 -28 13 -68 26 -41 29 -42 38 -22 5 11 12 21 15 21 11 0 121 -189 121 -208
0 -11 -7 -25 -16 -32 -20 -18 -22 -15 -139 175 -96 158 -125 195 -150 195 -7
0 -22 -8 -33 -17z m68 -167 c0 -17 -115 -196 -127 -196 -16 0 -36 38 -29 55 2
7 30 54 62 105 l57 93 18 -24 c10 -13 19 -28 19 -33z"/>
<path d="M1200 1240 l0 -231 -25 -24 c-29 -30 -36 -31 -66 -6 -24 19 -24 22
-27 235 l-3 216 -45 0 -44 0 0 -130 0 -130 -55 0 -55 0 0 110 0 110 -45 0 -45
0 0 -158 c0 -133 -3 -163 -18 -191 -47 -88 -172 -91 -228 -6 -10 15 -19 55
-22 95 l-5 70 -45 0 -45 0 5 -77 c5 -91 30 -146 84 -191 125 -103 320 -38 359
121 7 25 11 27 60 27 l53 0 7 -54 c19 -159 176 -208 269 -83 11 16 21 48 24
82 l4 55 79 0 c72 0 79 2 98 26 19 25 21 40 21 195 l0 169 -45 0 -45 0 0 -150
0 -150 -55 0 -55 0 0 150 0 150 -45 0 -45 0 0 -230z"/>
<path d="M1379 1019 c-24 -24 -24 -41 -1 -62 26 -24 49 -21 67 7 31 47 -26 95
-66 55z"/>
<path d="M1817 1023 c-4 -3 -7 -18 -7 -33 0 -49 42 -66 75 -30 26 29 7 70 -33
70 -16 0 -32 -3 -35 -7z"/>
<path d="M1368 895 c-9 -21 -8 -28 7 -45 24 -27 51 -25 70 4 23 34 5 66 -36
66 -22 0 -32 -6 -41 -25z"/>
</g>
</svg>
