<?xml version="1.0" encoding="UTF-8"?>
<svg xmlns="http://www.w3.org/2000/svg" xmlns:xlink="http://www.w3.org/1999/xlink" width="300px" height="60px" viewBox="30 60 100 50" version="1.1">
<g id="surface1">
<path style=" stroke:none;fill-rule:nonzero;fill:rgb(255,255,255);fill-opacity:1;" d="M 160.996094 61.945312 C 160.304688 62.519531 157.71875 66.429688 155.191406 70.6875 C 151.515625 76.78125 150.539062 78.855469 150.539062 80.578125 L 150.539062 82.820312 L 143.644531 82.820312 L 143.644531 65.566406 L 138.472656 65.566406 L 138.472656 93.175781 L 137.09375 94.039062 C 135.484375 95.128906 133.761719 94.554688 132.726562 92.601562 C 132.382812 91.96875 132.152344 86.675781 132.152344 79.714844 L 132.152344 67.867188 L 126.980469 67.867188 L 126.980469 82.820312 L 120.660156 82.820312 L 120.660156 70.167969 L 115.488281 70.167969 L 115.488281 82.820312 L 109.167969 82.820312 L 109.167969 65.566406 L 103.996094 65.566406 L 103.996094 82.820312 L 97.101562 82.820312 L 97.101562 70.167969 L 91.929688 70.167969 L 91.929688 82.246094 C 91.929688 94.382812 91.929688 94.382812 90.496094 95.761719 C 89.632812 96.683594 88.425781 97.199219 87.335938 97.199219 C 85.667969 97.199219 85.609375 97.257812 85.609375 99.847656 L 85.609375 102.550781 L 88.597656 102.203125 C 94.058594 101.515625 96.585938 98.640625 97.046875 92.484375 L 97.390625 88.285156 L 106.871094 88.113281 C 112.097656 88 118.765625 88.113281 121.695312 88.285156 L 126.980469 88.6875 L 126.980469 90.757812 C 126.980469 94.210938 128.992188 97.546875 131.921875 98.984375 C 137.609375 101.746094 143.011719 98.351562 143.929688 91.390625 L 144.332031 88.574219 L 150.59375 88.574219 C 156.511719 88.574219 156.859375 88.632812 156.859375 89.722656 C 156.859375 91.449219 158.410156 94.957031 159.902344 96.566406 C 161.683594 98.464844 165.363281 100.078125 168.121094 100.078125 C 173.289062 100.078125 178.691406 95.648438 178.921875 91.277344 C 178.980469 89.609375 178.808594 89.4375 177.140625 89.265625 C 176.164062 89.148438 175.070312 89.4375 174.726562 89.839844 C 171.738281 93.578125 170.761719 94.382812 168.925781 94.671875 C 166.109375 95.128906 163.0625 93.003906 162.375 90.125 C 161.914062 88.285156 162.085938 87.597656 163.695312 84.433594 C 164.730469 82.476562 166.167969 80.003906 166.914062 78.910156 L 168.234375 76.957031 L 170.015625 79.714844 L 171.738281 82.535156 L 168.867188 82.707031 C 166.339844 82.878906 165.878906 83.109375 164.902344 84.71875 C 162.890625 88 162.949219 88 172.601562 88 C 181.277344 88 181.507812 87.941406 183.230469 86.503906 C 185.53125 84.605469 186.5625 81.328125 185.644531 78.738281 C 184.550781 75.632812 176.394531 62.691406 174.84375 61.714844 C 173.578125 60.851562 173.347656 60.851562 172.027344 61.886719 C 171.222656 62.460938 170.128906 63.667969 169.671875 64.476562 C 168.808594 65.855469 168.867188 66.085938 170.417969 68.386719 C 171.910156 70.742188 172.085938 70.800781 172.601562 69.652344 C 172.890625 69.019531 173.289062 68.441406 173.464844 68.441406 C 174.09375 68.441406 180.414062 79.3125 180.414062 80.40625 C 180.414062 81.039062 180.011719 81.84375 179.496094 82.246094 C 178.347656 83.28125 178.230469 83.109375 171.511719 72.183594 C 165.992188 63.09375 164.328125 60.964844 162.890625 60.964844 C 162.488281 60.964844 161.628906 61.425781 160.996094 61.945312 Z M 164.902344 71.550781 C 164.902344 72.527344 158.292969 82.820312 157.605469 82.820312 C 156.6875 82.820312 155.535156 80.636719 155.9375 79.660156 C 156.054688 79.257812 157.664062 76.554688 159.5 73.621094 L 162.777344 68.269531 L 163.808594 69.652344 C 164.386719 70.398438 164.902344 71.261719 164.902344 71.550781 Z M 164.902344 71.550781 "/>
<path style=" stroke:none;fill-rule:nonzero;fill:rgb(255,255,255);fill-opacity:1;" d="M 68.949219 78.796875 L 68.949219 92.082031 L 67.511719 93.460938 C 65.847656 95.1875 65.445312 95.246094 63.71875 93.808594 C 62.339844 92.714844 62.339844 92.542969 62.167969 80.292969 L 61.996094 67.867188 L 56.882812 67.867188 L 56.882812 82.820312 L 50.5625 82.820312 L 50.5625 70.167969 L 45.390625 70.167969 L 45.390625 79.257812 C 45.390625 86.90625 45.21875 88.632812 44.355469 90.242188 C 41.65625 95.304688 34.472656 95.476562 31.257812 90.585938 C 30.683594 89.722656 30.164062 87.421875 29.992188 85.121094 L 29.707031 81.097656 L 24.535156 81.097656 L 24.820312 85.523438 C 25.109375 90.757812 26.546875 93.921875 29.648438 96.511719 C 36.828125 102.433594 48.035156 98.695312 50.273438 89.550781 C 50.675781 88.113281 50.90625 88 53.722656 88 L 56.769531 88 L 57.171875 91.105469 C 58.261719 100.25 67.28125 103.066406 72.625 95.878906 C 73.257812 94.957031 73.832031 93.117188 74.003906 91.160156 L 74.234375 88 L 78.773438 88 C 82.910156 88 83.3125 87.882812 84.40625 86.503906 C 85.496094 85.066406 85.609375 84.203125 85.609375 75.289062 L 85.609375 65.566406 L 80.441406 65.566406 L 80.441406 82.820312 L 74.121094 82.820312 L 74.121094 65.566406 L 68.949219 65.566406 Z M 68.949219 78.796875 "/>
<path style=" stroke:none;fill-rule:nonzero;fill:rgb(255,255,255);fill-opacity:1;" d="M 79.234375 91.507812 C 77.855469 92.886719 77.855469 93.863281 79.175781 95.074219 C 80.671875 96.453125 81.992188 96.28125 83.027344 94.671875 C 84.808594 91.96875 81.53125 89.207031 79.234375 91.507812 Z M 79.234375 91.507812 "/>
<path style=" stroke:none;fill-rule:nonzero;fill:rgb(255,255,255);fill-opacity:1;" d="M 104.398438 91.277344 C 104.171875 91.449219 103.996094 92.3125 103.996094 93.175781 C 103.996094 95.992188 106.410156 96.972656 108.308594 94.898438 C 109.800781 93.230469 108.710938 90.875 106.410156 90.875 C 105.492188 90.875 104.570312 91.046875 104.398438 91.277344 Z M 104.398438 91.277344 "/>
<path style=" stroke:none;fill-rule:nonzero;fill:rgb(255,255,255);fill-opacity:1;" d="M 78.601562 98.640625 C 78.085938 99.847656 78.140625 100.25 79.003906 101.226562 C 80.382812 102.78125 81.933594 102.664062 83.027344 100.996094 C 84.347656 99.042969 83.3125 97.199219 80.957031 97.199219 C 79.691406 97.199219 79.117188 97.546875 78.601562 98.640625 Z M 78.601562 98.640625 "/>
</g>
</svg>
